<svg fill="#3d369b" width="88px" height="88px" viewBox="-2.4 -2.4 28.80 28.80" xmlns="http://www.w3.org/2000/svg" preserveAspectRatio="xMinYMin" class="jam jam-task-list" stroke="#3d369b" stroke-width="0.168" transform="matrix(1, 0, 0, 1, 0, 0)rotate(0)"><g id="SVGRepo_bgCarrier" strokeWidth="0"></g><g id="SVGRepo_tracerCarrier" strokeLinecap="round" strokeLinejoin="round" stroke="#e2c1c1" stroke-width="0.048"><path d="M6 0h8a6 6 0 0 1 6 6v8a6 6 0 0 1-6 6H6a6 6 0 0 1-6-6V6a6 6 0 0 1 6-6zm0 2a4 4 0 0 0-4 4v8a4 4 0 0 0 4 4h8a4 4 0 0 0 4-4V6a4 4 0 0 0-4-4H6zm6 7h3a1 1 0 0 1 0 2h-3a1 1 0 0 1 0-2zm-2 4h5a1 1 0 0 1 0 2h-5a1 1 0 0 1 0-2zm0-8h5a1 1 0 0 1 0 2h-5a1 1 0 1 1 0-2zm-4.172 5.243L7.95 8.12a1 1 0 1 1 1.414 1.415l-2.828 2.828a1 1 0 0 1-1.415 0L3.707 10.95a1 1 0 0 1 1.414-1.414l.707.707z"></path></g><g id="SVGRepo_iconCarrier"><path d="M6 0h8a6 6 0 0 1 6 6v8a6 6 0 0 1-6 6H6a6 6 0 0 1-6-6V6a6 6 0 0 1 6-6zm0 2a4 4 0 0 0-4 4v8a4 4 0 0 0 4 4h8a4 4 0 0 0 4-4V6a4 4 0 0 0-4-4H6zm6 7h3a1 1 0 0 1 0 2h-3a1 1 0 0 1 0-2zm-2 4h5a1 1 0 0 1 0 2h-5a1 1 0 0 1 0-2zm0-8h5a1 1 0 0 1 0 2h-5a1 1 0 1 1 0-2zm-4.172 5.243L7.95 8.12a1 1 0 1 1 1.414 1.415l-2.828 2.828a1 1 0 0 1-1.415 0L3.707 10.95a1 1 0 0 1 1.414-1.414l.707.707z"></path></g></svg>